<?xml version="1.0" encoding="UTF-8"?>
<svg width="47px" height="30px" viewBox="0 0 47 30" version="1.1" xmlns="http://www.w3.org/2000/svg" xmlns:xlink="http://www.w3.org/1999/xlink">
    <!-- Generator: Sketch 63.1 (92452) - https://sketch.com -->
    <title>编组</title>
    <desc>Created with Sketch.</desc>
    <g id="页面-1" stroke="none" stroke-width="1" fill="none" fill-rule="evenodd">
        <g id="画板备份-18" transform="translate(-334.000000, -408.000000)" fill="#FFFFFF" fill-rule="nonzero">
            <g id="编组" transform="translate(334.045455, 408.618812)">
                <g id="ttww" transform="translate(0.000000, -0.000000)">
                    <path d="M31.8132218,6.91879461 C31.8132218,19.3278068 23.6585003,28.263416 11.6646145,28.6555744 C6.59243376,29.0477328 3.11756963,27.5071106 0.00700577481,25.1821715 C3.48186991,25.5743299 8.16172724,24.425866 10.4596213,22.0729156 C6.98475713,22.0729156 5.02314029,20.1121236 3.87419327,17.4510488 L6.98475713,17.4510488 C3.87419327,16.2745736 1.52025306,13.9496345 1.52025306,10.0840731 C2.2768767,10.4762315 3.06152344,10.8403786 4.63081691,10.8403786 C1.91257642,9.29975632 0.371306045,4.25771976 2.3048998,1.14846388 C5.77976393,5.01402524 10.0392748,8.51543952 17.0730724,8.87958661 C15.1114555,1.14846388 25.2277938,-2.77312011 29.4873047,2.29692777 C31.4489215,1.90476937 32.5978685,1.14846388 34.1111158,0.336135771 C33.7187925,2.29692777 32.5698454,3.44539165 31.000552,4.20169713 C32.5418224,4.20169713 33.7187925,3.80953874 34.8677395,3.05323325 C34.5034392,4.59385553 32.9621688,6.16248913 31.8132218,6.91879461 L31.8132218,6.91879461 Z" id="路径"></path>
                </g>
                <path d="M33.9215455,27.471 C35.0695455,27.471 35.9095455,27.163 36.4415455,26.575 C36.9035455,26.015 37.1415455,25.175 37.1415455,24.055 L37.1415455,17.279 L35.6155455,17.279 L35.6155455,23.999 C35.6155455,24.741 35.4755455,25.273 35.2235455,25.609 C34.9575455,25.945 34.5375455,26.127 33.9495455,26.127 C32.9135455,26.127 32.3955455,25.525 32.3955455,24.335 L32.3955455,24.013 L30.8695455,24.013 L30.8695455,24.349 C30.8695455,25.329 31.1355455,26.085 31.6675455,26.645 C32.1715455,27.191 32.9275455,27.471 33.9215455,27.471 Z M40.6275455,27.275 L40.6275455,23.383 L43.2175455,23.383 C45.6115455,23.383 46.8155455,22.361 46.8155455,20.317 C46.8155455,18.287 45.6255455,17.279 43.2455455,17.279 L39.1015455,17.279 L39.1015455,27.275 L40.6275455,27.275 Z M43.1195455,22.081 L40.6275455,22.081 L40.6275455,18.581 L43.1195455,18.581 C43.8615455,18.581 44.4075455,18.721 44.7575455,19.001 C45.1075455,19.253 45.2895455,19.701 45.2895455,20.317 C45.2895455,20.933 45.1075455,21.381 44.7715455,21.661 C44.4215455,21.941 43.8755455,22.081 43.1195455,22.081 Z" id="JP"></path>
            </g>
        </g>
    </g>
</svg>