<?xml version="1.0" encoding="UTF-8"?>
<svg width="36px" height="30px" viewBox="0 0 36 30" version="1.1" xmlns="http://www.w3.org/2000/svg" xmlns:xlink="http://www.w3.org/1999/xlink">
    <!-- Generator: Sketch 63.1 (92452) - https://sketch.com -->
    <title>1备份</title>
    <desc>Created with Sketch.</desc>
    <g id="页面-1" stroke="none" stroke-width="1" fill="none" fill-rule="evenodd">
        <g id="画板备份-18" transform="translate(-259.000000, -408.000000)">
            <g id="1备份" transform="translate(252.000000, 398.000000)">
                <g id="ttww" transform="translate(7.500000, 10.618812)" fill="#FFFFFF" fill-rule="nonzero">
                    <path d="M31.8132218,6.91879461 C31.8132218,19.3278068 23.6585003,28.263416 11.6646145,28.6555744 C6.59243376,29.0477328 3.11756963,27.5071106 0.00700577481,25.1821715 C3.48186991,25.5743299 8.16172724,24.425866 10.4596213,22.0729156 C6.98475713,22.0729156 5.02314029,20.1121236 3.87419327,17.4510488 L6.98475713,17.4510488 C3.87419327,16.2745736 1.52025306,13.9496345 1.52025306,10.0840731 C2.2768767,10.4762315 3.06152344,10.8403786 4.63081691,10.8403786 C1.91257642,9.29975632 0.371306045,4.25771976 2.3048998,1.14846388 C5.77976393,5.01402524 10.0392748,8.51543952 17.0730724,8.87958661 C15.1114555,1.14846388 25.2277938,-2.77312011 29.4873047,2.29692777 C31.4489215,1.90476937 32.5978685,1.14846388 34.1111158,0.336135771 C33.7187925,2.29692777 32.5698454,3.44539165 31.000552,4.20169713 C32.5418224,4.20169713 33.7187925,3.80953874 34.8677395,3.05323325 C34.5034392,4.59385553 32.9621688,6.16248913 31.8132218,6.91879461 L31.8132218,6.91879461 Z" id="路径"></path>
                </g>
                <rect id="矩形" x="0" y="0" width="50" height="50"></rect>
            </g>
        </g>
    </g>
</svg>