<?xml version="1.0" encoding="UTF-8"?>
<svg width="37px" height="38px" viewBox="0 0 37 38" version="1.1" xmlns="http://www.w3.org/2000/svg" xmlns:xlink="http://www.w3.org/1999/xlink">
    <!-- Generator: Sketch 63.1 (92452) - https://sketch.com -->
    <title>4备份</title>
    <desc>Created with Sketch.</desc>
    <g id="页面-1" stroke="none" stroke-width="1" fill="none" fill-rule="evenodd">
        <g id="画板备份-18" transform="translate(-482.000000, -404.000000)">
            <g id="4备份" transform="translate(475.636364, 398.000000)">
                <g id="linkedin" transform="translate(6.666667, 6.458333)" fill="#FFFFFF" fill-rule="nonzero">
                    <path d="M30.5066667,0 L6.16,0 C2.76182727,0.00946678115 0.00940026161,2.78137093 -6.85797099e-16,6.20359032 L-6.85797099e-16,30.7225425 C0.00940026161,34.1447619 2.76182727,36.9166661 6.16,36.9261328 L30.5066667,36.9261328 C33.9048394,36.9166661 36.6572664,34.1447619 36.6666667,30.7225425 L36.6666667,6.20359032 C36.6572664,2.78137093 33.9048394,0.00946678115 30.5066667,0 Z M13.75,30.0037138 L9.16666667,30.0037138 L9.16666667,13.8472998 L13.75,13.8472998 L13.75,30.0037138 Z M11.4571111,11.5406474 C10.1914586,11.5406474 9.16544446,10.5073728 9.16544446,9.23276407 C9.16544446,7.95815532 10.1914586,6.92488077 11.4571111,6.92488077 C12.7220886,6.92488077 13.7475555,7.95760426 13.7475555,9.23153321 C13.7475555,10.5054622 12.7220886,11.5381856 11.4571111,11.5381857 L11.4571111,11.5406474 Z M29.7904445,30.0037138 L25.2095555,30.0037138 L25.2095555,20.7721806 C25.2095555,19.496892 24.1829942,18.4630664 22.9166667,18.4630664 C21.6503391,18.4630664 20.6237778,19.496892 20.6237778,20.7721806 L20.6237778,30.0037138 L16.0428889,30.0037138 L16.0428889,13.8472998 L20.6262222,13.8472998 L20.6262222,16.7127677 C21.5697778,15.4055826 23.0144444,13.8472998 24.6351111,13.8472998 C27.4828889,13.8472998 29.7928889,16.4321291 29.7928889,19.6176235 L29.7928889,30.0012521 L29.7904445,30.0037138 Z" id="形状"></path>
                </g>
                <rect id="矩形备份-2" x="0" y="0" width="50" height="50"></rect>
            </g>
        </g>
    </g>
</svg>