<?xml version="1.0" encoding="UTF-8"?>
<svg width="40px" height="34px" viewBox="0 0 40 34" version="1.1" xmlns="http://www.w3.org/2000/svg" xmlns:xlink="http://www.w3.org/1999/xlink">
    <!-- Generator: Sketch 63.1 (92452) - https://sketch.com -->
    <title>6备份</title>
    <desc>Created with Sketch.</desc>
    <g id="页面-1" stroke="none" stroke-width="1" fill="none" fill-rule="evenodd">
        <g id="画板备份-18" transform="translate(-630.000000, -406.000000)">
            <g id="6备份" transform="translate(624.727273, 398.000000)">
                <g id="telegram" transform="translate(5.416667, 8.333333)" fill="#FFFFFF" fill-rule="nonzero">
                    <path d="M14.6559696,31.0925564 L15.2620711,21.8364657 L31.8616903,6.69304026 C32.5961157,6.01518083 31.7104513,5.68766287 30.73771,6.27765166 L10.2482712,19.3852164 L1.38589863,16.5402609 C-0.516045591,15.9924957 -0.537814837,14.6584593 1.81784619,13.6964466 L36.3358422,0.216857964 C37.9135393,-0.505507389 39.4259286,0.61056419 38.8209729,3.06181345 L32.9421321,31.0925564 C32.530808,33.08277 31.3426657,33.5643469 29.6996609,32.6445578 L20.7513571,25.9492694 L16.4513592,30.1727674 C15.9541039,30.6760266 15.5427798,31.0925564 14.6571154,31.0925564 L14.6559696,31.0925564 Z" id="路径"></path>
                </g>
                <rect id="矩形备份-3" x="0" y="0" width="50" height="50"></rect>
            </g>
        </g>
    </g>
</svg>