<?xml version="1.0" encoding="UTF-8"?>
<svg width="33px" height="38px" viewBox="0 0 33 38" version="1.1" xmlns="http://www.w3.org/2000/svg" xmlns:xlink="http://www.w3.org/1999/xlink">
    <!-- Generator: Sketch 63.1 (92452) - https://sketch.com -->
    <title>11备份</title>
    <desc>Created with Sketch.</desc>
    <g id="页面-1" stroke="none" stroke-width="1" fill="none" fill-rule="evenodd">
        <g id="画板备份-18" transform="translate(-1006.000000, -404.000000)">
            <g id="11备份" transform="translate(997.454545, 398.000000)">
                <g id="discord" transform="translate(8.750000, 6.458333)" fill="#FFFFFF" fill-rule="nonzero">
                    <path d="M21.3486513,17.472456 C21.3486513,18.5943716 20.5211842,19.5139745 19.4730592,19.5139745 C18.4433224,19.5139745 17.5974671,18.5943716 17.5974671,17.472456 C17.5974671,16.3505404 18.4249342,15.4309374 19.4730592,15.4309374 C20.5211842,15.4309374 21.3486513,16.3505404 21.3486513,17.472456 Z M12.7613816,15.4309374 C11.7132566,15.4309374 10.8857895,16.3505404 10.8857895,17.472456 C10.8857895,18.5943716 11.7316447,19.5139745 12.7613816,19.5139745 C13.8095066,19.5139745 14.6369737,18.5943716 14.6369737,17.472456 C14.6553618,16.3505404 13.8095066,15.4309374 12.7613816,15.4309374 Z M32.1792763,3.78876414 L32.1792763,36.7841179 C27.5467534,32.689442 29.0282931,34.0448506 23.6471711,29.041061 L24.6217434,32.4435919 L3.76957237,32.4435919 C1.69171053,32.4435919 0,30.7515225 0,28.6548278 L0,3.78876414 C0,1.69206942 1.69171053,0 3.76957237,0 L28.4097039,0 C30.4875658,0 32.1792763,1.69206942 32.1792763,3.78876414 Z M26.9386513,21.224436 C26.9386513,15.302193 24.2907566,10.5018656 24.2907566,10.5018656 C21.6428618,8.51552328 19.1236842,8.57054662 19.1236842,8.57054662 L18.86625,8.8649724 C21.9922368,9.82135947 23.4449013,11.2007639 23.4449013,11.2007639 C19.0769237,8.80627587 13.9459812,8.80584481 9.70894737,10.6673942 C9.02858553,10.9800592 8.62404605,11.2007639 8.62404605,11.2007639 C8.62404605,11.2007639 10.1502632,9.74779123 13.4601316,8.79140417 L13.27625,8.57054662 C13.27625,8.57054662 10.7570724,8.51552328 8.10917763,10.5018656 C8.10917763,10.5018656 5.46128289,15.302193 5.46128289,21.224436 C5.46128289,21.224436 7.00588816,23.8912845 11.0696711,24.020029 C11.0696711,24.020029 11.7500329,23.1923863 12.3016776,22.4934881 C9.96638158,21.7945898 9.08375,20.3232251 9.08375,20.3232251 C9.35425704,20.5126058 9.80031353,20.7580967 9.83766447,20.7830266 C12.9413844,22.5215072 17.3500889,23.0910863 21.311875,21.4267486 C21.9554605,21.1876519 22.6725987,20.8382028 23.4265132,20.3416172 C23.4265132,20.3416172 22.5071053,21.849766 20.0982566,22.5302722 C20.6499013,23.2291704 21.311875,24.020029 21.311875,24.020029 C25.3756579,23.8912845 26.9386513,21.224436 26.9386513,21.224436 Z" id="形状"></path>
                </g>
                <rect id="矩形备份-7" x="0" y="0" width="50" height="50"></rect>
            </g>
        </g>
    </g>
</svg>