<?xml version="1.0" encoding="UTF-8"?>
<svg width="32px" height="32px" viewBox="0 0 32 32" version="1.1" xmlns="http://www.w3.org/2000/svg" xmlns:xlink="http://www.w3.org/1999/xlink">
    <!-- Generator: Sketch 63.1 (92452) - https://sketch.com -->
    <title>3备份</title>
    <desc>Created with Sketch.</desc>
    <g id="页面-1" stroke="none" stroke-width="1" fill="none" fill-rule="evenodd">
        <g id="画板备份-18" transform="translate(-410.000000, -407.000000)">
            <g id="3备份" transform="translate(401.090909, 398.000000)">
                <g id="facebookblack" transform="translate(9.166667, 9.166667)" fill="#FFFFFF" fill-rule="nonzero">
                    <path d="M16.9139583,31.5403033 L1.74826388,31.5403033 C0.7827244,31.5403033 -1.24746562e-07,30.7607023 -1.24746562e-07,29.7990157 L-1.24746562e-07,1.74128757 C-1.24746562e-07,1.27941595 0.183960247,0.836411316 0.511861285,0.509818742 C0.839762323,0.183226168 1.28454182,-1.2424877e-07 1.74826388,-1.2424877e-07 L29.9184028,-1.2424877e-07 C30.3821248,-1.2424877e-07 30.8269043,0.183226168 31.1548054,0.509818742 C31.4827064,0.836411316 31.6666668,1.27941595 31.6666668,1.74128757 L31.6666668,29.7990157 C31.6666668,30.7604457 30.8843443,31.5399405 29.9190625,31.5403033 L21.8493403,31.5403033 L21.8493403,19.3263208 L25.966007,19.3263208 L26.5821875,14.5663634 L21.8493403,14.5663634 L21.8493403,11.5273238 C21.8493403,10.1487497 22.2339583,9.20976856 24.217743,9.20976856 L26.7484375,9.20845437 L26.7484375,4.95117053 C26.3110417,4.89334666 24.8088542,4.76389998 23.0605903,4.76389998 C19.4123264,4.76389998 16.9139583,6.98223464 16.9139583,11.0555334 L16.9139583,14.5663634 L12.7873958,14.5663634 L12.7873958,19.3263208 L16.9139583,19.3263208 L16.9139583,31.5403033 Z" id="路径"></path>
                </g>
                <rect id="矩形备份" x="0" y="0" width="50" height="50"></rect>
            </g>
        </g>
    </g>
</svg>