<?xml version="1.0" encoding="UTF-8"?>
<svg width="37px" height="30px" viewBox="0 0 37 30" version="1.1" xmlns="http://www.w3.org/2000/svg" xmlns:xlink="http://www.w3.org/1999/xlink">
    <!-- Generator: Sketch 63.1 (92452) - https://sketch.com -->
    <title>5备份</title>
    <desc>Created with Sketch.</desc>
    <g id="页面-1" stroke="none" stroke-width="1" fill="none" fill-rule="evenodd">
        <g id="画板备份-18" transform="translate(-557.000000, -408.000000)" fill="#FFFFFF" fill-rule="nonzero">
            <g id="5备份" transform="translate(550.181818, 398.000000)">
                <g id="medium" transform="translate(7.083333, 10.833333)">
                    <path d="M4.25901508,5.79517591 C4.30320955,5.35797384 4.13557834,4.92596518 3.80767051,4.63199898 L0.469671285,0.625105303 L0.469671285,0.0274693359 L10.8353776,0.0274693359 L18.8488336,17.5318411 L25.8934384,0.0274693359 L35.7776129,0.0274693359 L35.7776129,0.625105303 L32.9213242,3.35090316 C32.6755802,3.53806135 32.5535391,3.84497772 32.6039826,4.14897277 L32.6039826,24.18337 C32.5540143,24.4869659 32.6760058,24.7932923 32.9213242,24.9802298 L35.707164,27.7060277 L35.707164,28.3036636 L21.6861883,28.3036636 L21.6861883,27.7060277 L24.5726286,24.9134779 C24.8553531,24.6318816 24.8553531,24.5482994 24.8553531,24.1154083 L24.8553531,7.92319548 L16.8239634,28.2369829 L15.7412223,28.2369829 L6.39123769,7.92319548 L6.39123769,21.5377385 C6.31370104,22.1101094 6.50444374,22.6862329 6.90860131,23.100395 L10.663328,27.641553 L10.663328,28.2381571 L0.0171120823,28.2381571 L0.0171120823,27.6403432 L3.77183874,23.0993631 C4.17402626,22.6863268 4.35293505,22.1053432 4.25794334,21.5377385 L4.25794334,5.79517591 L4.25901508,5.79517591 Z" id="路径"></path>
                </g>
            </g>
        </g>
    </g>
</svg>