<?xml version="1.0" encoding="UTF-8"?>
<svg width="35px" height="38px" viewBox="0 0 35 38" version="1.1" xmlns="http://www.w3.org/2000/svg" xmlns:xlink="http://www.w3.org/1999/xlink">
    <!-- Generator: Sketch 63.1 (92452) - https://sketch.com -->
    <title>12备份</title>
    <desc>Created with Sketch.</desc>
    <g id="页面-1" stroke="none" stroke-width="1" fill="none" fill-rule="evenodd">
        <g id="画板备份-18" transform="translate(-1079.000000, -404.000000)">
            <g id="12备份" transform="translate(1072.000000, 398.000000)">
                <g id="github" transform="translate(7.916667, 6.250000)" fill="#FFFFFF" fill-rule="nonzero">
                    <path d="M0.201953472,24.5439304 C0.340468164,24.3022697 2.11485705,23.449386 4.81693322,26.6347909 C4.82313483,26.6347909 4.83247372,26.6394684 4.84494989,26.6503948 C5.03482847,26.8078599 5.92512372,28.083257 6.42942372,28.5432273 C8.58517489,30.489084 11.811761,28.9813812 12.1790785,28.7630716 C12.3502793,27.3675933 12.8748257,26.2683714 13.7542499,25.4607283 C12.9617177,25.4263608 12.1754937,25.3034596 11.4101888,25.0943088 C10.6358751,24.9925552 9.88223274,24.7700174 9.17662569,24.4347756 C8.40643215,24.2205488 7.68494795,23.8589206 7.05202847,23.3698678 C6.41698403,23.0284074 5.81929514,22.513878 5.25896181,21.8293857 C4.65082545,21.2104113 4.1547079,20.4902684 3.79275625,19.7011049 C3.40362372,18.9683025 3.09700903,18.0265456 2.87754514,16.877442 C2.65808125,15.8249955 2.54758322,14.6150474 2.54758322,13.2445647 C2.54758322,10.7264767 3.38961539,8.51242882 5.07528483,6.60399242 C4.97569434,6.40753573 3.86746736,3.78811323 5.36635903,0.0367259991 C7.39289792,-0.0365432827 9.57819792,0.892752397 12.1417229,2.52989146 C14.0219404,2.09177405 16.0843027,1.82204808 18.3318376,1.72224837 C20.416288,1.792158 22.4892043,2.06261609 24.5219888,2.52989146 C25.3749285,2.01689686 28.3820507,-0.0365432827 31.2584285,0.110031824 C32.6374832,3.37495487 31.6615329,6.32180519 31.5152479,6.63987793 C33.1993487,8.32846993 34.0414174,10.4676406 34.0414174,13.0605692 L34.0414174,13.2804136 C34.0538571,13.4644091 34.0600951,13.6484045 34.0600951,13.8323634 C34.0600951,14.8458182 33.9449277,15.8748771 33.7114554,16.9148624 C33.5176852,17.889208 33.2105169,18.8374288 32.7962443,19.7400966 C32.4074932,20.4931994 31.9275813,21.1954446 31.3673579,21.8309571 C30.8140086,22.3838643 30.2135158,22.8873089 29.5727225,23.3355537 C28.8995808,23.7223357 28.2024074,24.0655458 27.4854809,24.3630777 C26.7441729,24.595433 25.9990241,24.8153084 25.2503492,25.0226109 C24.4665612,25.1284793 23.6850513,25.2506332 22.9063245,25.3889938 C24.0051761,26.3198243 24.5670781,27.8353473 24.591994,29.9387056 C24.5810864,30.5732797 24.5748484,31.2499517 24.5748484,31.9656153 C24.5748484,32.681279 24.5810864,33.4359343 24.591994,34.2311161 C24.5670781,35.0138367 24.5561706,35.6078843 24.5561706,36.0116876 C24.5561706,36.4154909 24.5670781,36.6291229 24.591994,36.6525106 C22.6871592,37.1253589 20.7331722,37.3708204 18.7707654,37.3837782 L18.2213396,37.3837782 C16.2306241,37.3837782 14.2896674,37.1405461 12.3969737,36.6494044 C12.3720943,36.6244453 12.3611868,35.2180771 12.3611868,32.4318345 C11.6031682,32.6017608 6.61466934,33.5825094 4.40135267,29.8794324 C3.69626656,28.7833532 3.10791656,26.1046575 0.715592361,24.9103499 C0.46187372,25.5683117 -0.341234245,25.0070069 0.201953472,24.5439304 Z" id="路径"></path>
                </g>
                <rect id="矩形备份-8" x="0" y="0" width="50" height="50"></rect>
            </g>
        </g>
    </g>
</svg>