<?xml version="1.0" encoding="UTF-8"?>
<svg width="35px" height="31px" viewBox="0 0 35 31" version="1.1" xmlns="http://www.w3.org/2000/svg" xmlns:xlink="http://www.w3.org/1999/xlink">
    <!-- Generator: Sketch 63.1 (92452) - https://sketch.com -->
    <title>10备份</title>
    <desc>Created with Sketch.</desc>
    <g id="页面-1" stroke="none" stroke-width="1" fill="none" fill-rule="evenodd">
        <g id="画板备份-18" transform="translate(-930.000000, -407.000000)">
            <g id="10备份" transform="translate(922.909091, 398.000000)">
                <g id="logo_hub">
                    <rect id="矩形备份-7" x="0" y="0" width="50" height="50"></rect>
                    <path d="M33.4338948,30.3015174 C33.3176971,30.1853198 33.2595983,30.0981716 33.1724501,30.0400727 C32.388116,29.2847881 31.6037819,28.500454 30.8194478,27.7451693 C30.7322996,27.6580211 30.6161019,27.5418234 30.5289537,27.4256258 C30.3837066,27.2513293 30.3837066,26.9898846 30.4999043,26.7865388 C30.6161019,26.5541435 30.8194478,26.4088964 31.0808925,26.379847 C31.1970901,26.3507976 31.3132878,26.3507976 31.4294854,26.3507976 C32.5043136,26.3507976 33.5500924,26.3507976 34.6249206,26.379847 C35.3802053,26.4088964 36.0773911,26.6993905 36.6002805,27.2513293 C38.1689487,28.8199975 39.7085674,30.3886657 41.2772356,31.9573338 C41.4515321,32.1316303 41.6258285,32.3349762 41.7710756,32.5673715 C42.0034709,32.9159644 42.0325203,33.380755 41.8291744,33.7583973 C41.6839274,33.9907926 41.5386803,34.2231879 41.3353344,34.4265337 C40.667198,35.0946702 39.9990616,35.7628066 39.3309251,36.4309431 C38.4594428,37.3314748 37.5589111,38.2029571 36.6874287,39.1034889 C36.3097864,39.4811312 35.8449958,39.7716253 35.3511559,39.8878229 C35.1187606,39.9459218 34.8573159,40.0040206 34.5958712,40.0040206 C33.8986853,40.0040206 33.2305489,40.0040206 32.533363,39.9749712 C32.1266713,39.9459218 31.6909301,39.9459218 31.2842384,39.9459218 C31.1099419,39.9459218 30.906596,39.8878229 30.761349,39.7716253 C30.4708549,39.5973288 30.4127561,39.2196865 30.5870525,38.9291924 C30.5870525,38.9291924 30.6161019,38.900143 30.6161019,38.900143 C30.7032502,38.7548959 30.8194478,38.6386983 30.9356454,38.5225006 C31.5456831,37.912463 32.1557207,37.3314748 32.7367089,36.7214372 C32.9400548,36.4890419 33.1434006,36.285696 33.3757959,36.1113996 C33.4048453,36.0823501 33.4338948,36.0242513 33.4048453,35.9952019 C33.4048453,35.9371031 33.3467465,35.9080537 33.2886477,35.9080537 C33.027203,35.8790043 32.7657583,35.8790043 32.533363,35.8790043 C31.8361772,35.8790043 31.1680407,35.8790043 30.4708549,35.8499549 C29.0183843,35.8209055 27.6240126,35.5013619 26.2877397,34.9203737 C25.3000598,34.4846326 24.3704786,33.9617432 23.4699469,33.380755 C22.482267,32.7416679 21.5526858,32.0444821 20.6231047,31.3472962 C19.7225729,30.6791598 18.7929918,30.0400727 17.8924601,29.4009857 C16.8466813,28.6747504 15.6847049,28.1518611 14.4355802,27.9194658 C13.7383944,27.7742187 13.0412085,27.7161199 12.3440227,27.7451693 C11.4144415,27.7742187 10.4848604,27.7742187 9.52622982,27.7451693 C9.06143925,27.7451693 8.62569809,27.7161199 8.16090752,27.6870705 C8.01566047,27.6870705 7.98661106,27.6289717 8.01566047,27.512774 C8.01566047,27.3965764 8.04470988,27.3094281 8.07375929,27.1932305 C8.24805576,26.4088964 8.30615458,25.5955129 8.27710517,24.7821294 C8.27710517,24.113993 8.18995693,23.4749059 8.04470988,22.8358189 C7.95756165,22.3710283 7.95756165,22.3710283 8.42235222,22.3419789 C9.29383454,22.3129295 10.1653169,22.2838801 11.0367992,22.3419789 C11.4144415,22.3710283 11.7920838,22.4000778 12.1987756,22.4000778 C13.4479003,22.4000778 14.6970249,22.1676825 15.8590013,21.7028919 C16.9919283,21.2381013 18.0377071,20.6280637 19.0253871,19.9308778 C19.7225729,19.4370379 20.36166,18.8850991 21.0297964,18.3622097 C22.3951187,17.2583321 23.8766387,16.3287509 25.4453068,15.5734663 C26.2586903,15.1958239 27.1301727,14.8762804 28.001655,14.6148357 C29.628422,14.1500451 31.3132878,13.9757487 32.9981536,14.1209957 C33.1143512,14.1209957 33.2014995,14.1209957 33.3176971,14.1209957 C33.3467465,14.1209957 33.3757959,14.0919463 33.3757959,14.0628969 C33.3757959,14.0338475 33.3757959,14.0047981 33.3467465,13.9757487 C32.5914618,13.3076122 31.9814242,12.5232781 31.1970901,11.8841911 C31.0227937,11.7389441 30.8484972,11.5646476 30.7322996,11.3613017 C30.4999043,10.9836594 30.4708549,10.4898194 30.6451513,10.0831277 C30.6742007,10.0250288 30.7322996,9.99597942 30.7903984,9.99597942 C30.8484972,9.99597942 30.9356454,9.99597942 30.9937443,9.99597942 C32.3300172,9.99597942 33.66629,9.99597942 35.0025629,9.99597942 C35.1768594,9.99597942 35.3802053,10.0540782 35.5254523,10.1702759 C36.3678852,10.8093629 37.1522193,11.5065488 37.907504,12.232784 C38.7789863,13.1042664 39.6214192,14.0047981 40.4638521,14.8762804 C40.7543462,15.1667745 41.0448403,15.4572686 41.3353344,15.7477627 C41.5096309,15.9220592 41.6839274,16.0963556 41.800125,16.2997015 C42.0615697,16.6773439 42.0615697,17.1711838 41.8291744,17.5488262 C41.6839274,17.8102709 41.4805815,18.0426662 41.2481862,18.246012 C40.6381486,18.8560497 40.028111,19.4951367 39.3890239,20.1051743 C38.4594428,21.0347555 37.5298617,21.9643366 36.6002805,22.8939177 C36.1935888,23.3296589 35.64165,23.620153 35.0316123,23.7073012 C34.8573159,23.7363506 34.6830194,23.7363506 34.5087229,23.7363506 C33.521043,23.7363506 32.533363,23.7073012 31.5747325,23.7073012 C31.400436,23.7073012 31.2261395,23.6782518 31.0518431,23.6782518 C30.8775466,23.6492024 30.7032502,23.5620542 30.5870525,23.4168071 C30.3837066,23.1844118 30.3546572,22.8358189 30.5580031,22.6034236 C30.6161019,22.5162754 30.7032502,22.4291272 30.7903984,22.3419789 C31.5747325,21.5576448 32.3590666,20.8023602 33.1434006,20.0180261 C33.2014995,19.9599273 33.2886477,19.872779 33.3467465,19.8146802 C33.3757959,19.7856308 33.3467465,19.727532 33.3176971,19.727532 C33.3176971,19.727532 33.2886477,19.727532 33.2886477,19.727532 C33.2595983,19.727532 33.2305489,19.6984826 33.1724501,19.6984826 C32.2428689,19.6113343 31.3423372,19.6113343 30.4127561,19.6984826 C29.3088784,19.8146802 28.2630997,20.1632731 27.3044691,20.6861625 C26.4910856,21.1509531 25.7067515,21.6738425 24.9514669,22.2548307 C24.0509351,22.9229671 23.1504034,23.5911036 22.2498717,24.25924 C22.0755752,24.4044871 21.8722293,24.5206847 21.6688835,24.6659318 C21.2040929,24.9854753 21.2040929,25.1307223 21.6688835,25.4502659 C21.9303282,25.6245623 22.1627234,25.7988588 22.4241681,25.9731553 C23.8475893,26.9608352 25.241961,27.9775646 26.6653821,28.9652445 C27.7111609,29.7205292 28.9021867,30.1853198 30.1803608,30.3596163 C30.9937443,30.4758139 31.8071278,30.5048633 32.6205113,30.4467645 C32.7948077,30.4177151 32.9691042,30.4177151 33.1434006,30.4177151 C33.2014995,30.3886657 33.3176971,30.3596163 33.4338948,30.3015174 Z" id="路径" fill="#FFFFFF" fill-rule="nonzero"></path>
                </g>
            </g>
        </g>
    </g>
</svg>