<?xml version="1.0" encoding="UTF-8"?>
<svg width="39px" height="32px" viewBox="0 0 39 32" version="1.1" xmlns="http://www.w3.org/2000/svg" xmlns:xlink="http://www.w3.org/1999/xlink">
    <!-- Generator: Sketch 63.1 (92452) - https://sketch.com -->
    <title>9备份</title>
    <desc>Created with Sketch.</desc>
    <g id="页面-1" stroke="none" stroke-width="1" fill="none" fill-rule="evenodd">
        <g id="画板备份-18" transform="translate(-854.000000, -407.000000)">
            <g id="9备份" transform="translate(848.363636, 398.000000)">
                <g id="iconnaverblog" transform="translate(6.250000, 9.166667)" fill="#FFFFFF" fill-rule="nonzero">
                    <path d="M7.91619762,12.5204384 C7.10346773,12.5204384 6.44405941,13.1824311 6.44405941,13.9979303 C6.44405941,14.8137296 7.10346773,15.4751821 7.91619762,15.4751821 C8.72880784,15.4751821 9.38821621,14.8137296 9.38821621,13.9979303 C9.38821621,13.1824311 8.7288079,12.5204384 7.91619762,12.5204384 Z" id="路径"></path>
                    <path d="M22.5014867,13.8470053 C22.4260523,13.102286 21.7989473,12.5204984 21.0372449,12.5204984 C20.2243355,12.5204984 19.5649272,13.1824911 19.5649272,13.9979903 C19.5649272,14.8137896 20.2243355,15.4752421 21.0372449,15.4752421 C21.7988875,15.4752421 22.4260523,14.8938748 22.5014867,14.1490354 C22.5022644,14.141231 22.5026233,14.1332465 22.5032813,14.1253821 C22.5068706,14.0833584 22.509084,14.0409745 22.509084,13.9979903 C22.509084,13.9550661 22.5068706,13.9126823 22.5032813,13.8706586 C22.5026233,13.8627341 22.5022644,13.8548097 22.5014867,13.8470053 Z" id="路径"></path>
                    <path d="M29.8597251,12.5204384 C29.0465167,12.5204384 28.387886,13.1824311 28.387886,13.9979303 C28.387886,14.8137296 29.0465166,15.4751821 29.8597251,15.4751821 C30.6721559,15.4751821 31.3312651,14.8137296 31.3312651,13.9979303 C31.3312651,13.1824311 30.6721559,12.5204384 29.8597251,12.5204384 Z" id="路径"></path>
                    <path d="M31.617569,0.00429129256 L6.020466,0.00429129256 C2.75650543,0.00429129256 0.0408653741,2.74009167 0.0408653741,6.0270023 L0.0408653741,20.1455716 C0.0408653741,23.4324222 2.75650543,26.0589611 6.020466,26.0589611 L14.8373829,26.0589611 L17.8465652,30.9947001 C17.8465652,30.9947001 17.8785696,31.0624182 17.944313,31.143704 C18.1201273,31.4463344 18.4441783,31.6574132 18.8182997,31.6574132 C19.1909255,31.6574132 19.5129427,31.4567803 19.6897141,31.1573917 C19.7652682,31.0683016 19.7915297,30.9930192 19.7915297,30.9930192 L22.8001736,26.0589611 L31.617569,26.0589611 C34.8805725,26.0589611 37.4290723,23.4324223 37.4290723,20.1455716 L37.4290723,6.0270023 C37.4290723,2.74015169 34.8805725,0.00429129256 31.617569,0.00429129256 Z M11.4806397,15.1698501 C10.821351,17.4080303 8.43071919,17.4971805 8.43071919,17.4971805 C8.42838616,17.4971805 8.4262326,17.4970604 8.42389957,17.4970004 C8.42180582,17.4971805 8.41259337,17.4971805 8.41259337,17.4971805 C7.18602092,17.4971805 6.56136863,16.7132591 6.50154751,16.5413223 L6.50154751,17.1740185 L4.10870226,17.1740185 L4.10870226,7.56861029 L6.38190527,7.56861029 L6.38190527,11.3040935 C7.33904335,10.4215367 8.36336058,10.4210563 8.36336058,10.4210563 C8.36521501,10.4210563 8.3898015,10.4211164 8.39159618,10.4211764 C8.39512563,10.4211164 8.40900413,10.4210563 8.40900412,10.4210563 C11.5184467,10.4210563 11.6428747,13.9234884 11.6428747,13.9234884 C11.6428747,14.3995564 11.5863437,14.8120487 11.4806397,15.1698501 Z M15.5345383,11.0641984 L15.5345383,17.1739585 L13.3809776,17.1739585 L13.3809776,11.5884136 C13.3809776,10.4361848 13.0030875,9.98028813 12.7169032,9.79994658 C12.5093837,9.67447593 12.3041973,9.68228033 12.3041973,9.68228033 L12.3041973,7.46667283 L12.3041973,7.46643271 C13.6202621,7.46643271 14.2938481,7.9564886 14.7620082,8.57471673 C15.5752765,9.63191203 15.5345383,11.0641984 15.5345383,11.0641984 Z M24.9083899,13.9979903 C24.9083899,17.4913572 21.0365271,17.4971205 21.0365271,17.4971205 C17.1294295,17.4971205 17.2519432,13.9979903 17.2519432,13.9979903 C17.2519432,10.4508931 21.0365271,10.4508931 21.0365271,10.4508931 C25.034433,10.4508931 24.9083899,13.9979903 24.9083899,13.9979903 Z M33.3612952,17.1384785 L33.3612952,17.1689157 C33.3612952,18.0373046 33.2158103,18.6425654 32.9240028,19.1418065 C31.9969547,20.7470503 30.1075043,20.655979 30.1075043,20.655979 L29.1737563,20.655979 L29.1737563,18.6148298 L29.768498,18.6148298 C31.3898301,18.6148298 31.1478536,17.0439853 31.1478536,17.0439853 L31.1478536,16.5366397 C30.4898212,17.3594029 29.3982051,17.3855776 29.2155114,17.3840768 C29.1908651,17.3840768 29.1973258,17.3835365 29.1973258,17.3835365 C26.0096372,17.3835365 26.055484,13.9736766 26.055484,13.9736766 C26.055484,10.5265957 28.9345914,10.4478314 29.2694102,10.4503028 C29.2997994,10.4503028 29.2785629,10.4510132 29.2785629,10.4510132 C30.4048153,10.4510132 31.0282712,11.145064 31.1479134,11.2962291 L31.1479134,10.6303942 L33.3612952,10.6303942 L33.3612952,17.1384785 L33.3612952,17.1384785 Z" id="形状"></path>
                </g>
                <rect id="矩形备份-5" x="0" y="0" width="50" height="50"></rect>
            </g>
        </g>
    </g>
</svg>