<?xml version="1.0" encoding="UTF-8"?>
<svg width="40px" height="34px" viewBox="0 0 40 34" version="1.1" xmlns="http://www.w3.org/2000/svg" xmlns:xlink="http://www.w3.org/1999/xlink">
    <!-- Generator: Sketch 63.1 (92452) - https://sketch.com -->
    <title>7备份</title>
    <desc>Created with Sketch.</desc>
    <g id="页面-1" stroke="none" stroke-width="1" fill="none" fill-rule="evenodd">
        <g id="画板备份-18" transform="translate(-704.000000, -406.000000)">
            <g id="7备份" transform="translate(699.272727, 398.000000)">
                <g id="reddit-3" transform="translate(5.416667, 8.541667)" fill="#FFFFFF" fill-rule="nonzero">
                    <path d="M39.1551856,15.8828583 C39.1551856,13.427561 37.1296064,11.4315043 34.6447864,11.4315043 C33.5655709,11.4315043 32.5585218,11.8202187 31.7450098,12.4992388 L31.6662828,12.5484432 C28.7320631,10.6950792 24.8432789,9.51417463 20.539538,9.35180022 L23.1096454,2.14500236 L29.5193328,3.65721622 C29.5258934,5.65819331 31.1742393,7.28193703 33.2030988,7.28193703 C35.2335985,7.28193703 36.8868649,5.65327287 36.8868649,3.64901546 C36.8852247,1.64311793 35.2303183,0.0128136213 33.2014587,0.0128136213 C31.6580821,0.0128136213 30.3394054,0.954256962 29.7915969,2.28277455 L22.1977247,0.491736024 L19.0437256,9.33539879 C14.5562884,9.4190462 10.4903685,10.6179923 7.44789921,12.5320417 C6.63251456,11.8233105 5.58910502,11.4320319 4.50875909,11.4298642 C2.02229899,11.4298642 0,13.4292011 0,15.8828583 C0,17.3999926 0.793830275,18.8023167 2.07970406,19.619109 C2.00261725,20.0619482 1.95177274,20.511348 1.95177274,20.9673083 C1.95177274,27.3933971 9.8441513,32.6205398 19.5423297,32.6205398 C29.2437884,32.6205398 37.1361669,27.3933971 37.136167,20.9673083 C37.136167,20.5244691 37.0902429,20.0881905 37.0164363,19.6584725 C38.3376992,18.8577651 39.1477288,17.4277894 39.1551856,15.8828583 L39.1551856,15.8828583 Z M25.5255793,21.6463284 C23.9936837,21.6463284 22.753734,20.4227802 22.753734,18.9105663 C22.753734,17.4016328 23.9936837,16.1764443 25.5255793,16.1764443 C27.0558347,16.1764443 28.2974246,17.3999926 28.2974246,18.9105663 C28.2974246,20.4227802 27.0541946,21.6463284 25.5255793,21.6463284 Z M26.076668,26.3092611 C25.9930206,26.3929086 24.0068049,28.3922455 19.511167,28.3922455 C14.992567,28.3922455 13.185127,26.3666663 13.1096804,26.2797385 C12.9885174,26.1392808 12.9286474,25.9561521 12.9434399,25.7712467 C12.9582323,25.5863412 13.0464551,25.41506 13.1884073,25.2956514 C13.4853703,25.0480375 13.924885,25.0791728 14.1839754,25.3661777 C14.2249791,25.4104616 15.7322724,26.9932017 19.511167,26.9932017 C23.3540271,26.9932017 25.0384562,25.3530565 25.0581379,25.3382952 C25.3327928,25.064018 25.7760995,25.0589225 26.0569863,25.3268142 C26.335811,25.5941579 26.3456518,26.0320766 26.076668,26.3109013 L26.076668,26.3092611 Z M11.1841499,18.9105663 C11.1841499,17.4016328 12.4224595,16.1764443 13.9559953,16.1764443 C15.4846106,16.1764443 16.7278406,17.3999926 16.7278406,18.9105663 C16.7278406,20.4227802 15.4846106,21.6463284 13.9559953,21.6463284 C12.4224595,21.6463284 11.1841499,20.4227802 11.1841499,18.9105663 Z" id="形状"></path>
                </g>
                <rect id="矩形备份-4" x="0" y="0" width="50" height="50"></rect>
            </g>
        </g>
    </g>
</svg>