<?xml version="1.0" standalone="no"?><!DOCTYPE svg PUBLIC "-//W3C//DTD SVG 1.1//EN" "http://www.w3.org/Graphics/SVG/1.1/DTD/svg11.dtd"><svg class="icon" width="200px" height="200.00px" viewBox="0 0 1024 1024" version="1.1" xmlns="http://www.w3.org/2000/svg"><path d="M512 16C236.8 16 16 240 16 512S236.8 1008 512 1008c272 0 496-220.8 496-496C1008 240 784 16 512 16z m-128 99.2c-48 83.2-76.8 211.2-80 355.2H99.2c16-163.2 128-304 284.8-355.2z m0 358.4C393.6 246.4 464 96 512 96s118.4 150.4 128 374.4h-256z m-284.8 80h208c3.2 144 35.2 272 80 355.2-160-51.2-272-192-288-355.2z m540.8 0c-9.6 224-83.2 374.4-128 374.4-48 0-118.4-150.4-128-374.4h256z m284.8 0c-16 166.4-131.2 304-288 355.2 48-83.2 76.8-211.2 80-355.2h208z m0-80h-208c-3.2-144-35.2-272-80-355.2 156.8 48 272 188.8 288 355.2z" /></svg>